<?xml version='1.0' encoding='utf-8'?>
<svg xmlns="http://www.w3.org/2000/svg" width="1344" height="768">
  <!-- Generated by SVG Vectorizer | 86 paths in 2 groups -->
  <g id="group_0">
    <path d="M0 0 C443.52 0 887.04 0 1344 0 C1344 253.44 1344 506.88 1344 768 C900.48 768 456.96 768 0 768 C0 514.56 0 261.12 0 0 Z" fill="#DFD7C9" transform="translate(0,0)"/>
    <path d="M0 0 C0.854326171875 0.008489685059 1.70865234375 0.016979370117 2.5888671875 0.025726318359 C5.289751771972 0.059035826163 7.987534216462 0.134264065533 10.6875 0.2109375 C12.529904475061 0.241066498801 14.372356244921 0.268437139334 16.21484375 0.29296875 C29.590408362013 0.488845862013 29.590408362013 0.488845862013 32.6875 3.5859375 C32.6875 15.4659375 32.6875 27.3459375 32.6875 39.5859375 C41.5975 39.5859375 50.5075 39.5859375 59.6875 39.5859375 C59.6875 36.2859375 59.6875 32.9859375 59.6875 29.5859375 C72.5575 29.5859375 85.4275 29.5859375 98.6875 29.5859375 C98.6875 33.2159375 98.6875 36.8459375 98.6875 40.5859375 C105.2875 40.5859375 111.8875 40.5859375 118.6875 40.5859375 C119.3475 38.9359375 120.0075 37.2859375 120.6875 35.5859375 C126.407885006867 30.081416078298 129.775154727895 27.80712828016 137.625 27.2109375 C142.385074133819 27.317189154773 145.077507371767 28.328139274522 148.6875 31.5859375 C151.096590431532 34.825748769991 152.118468312075 37.602715684525 152.6875 41.5859375 C153.073303556021 35.220178825654 152.977313373894 31.471558286935 148.6875 26.5859375 C144.160358968885 24.322366984442 141.682844776065 24.278531667627 136.6875 24.5859375 C133.875 25.5859375 133.875 25.5859375 131.6875 26.5859375 C130.6975 26.5859375 129.7075 26.5859375 128.6875 26.5859375 C130.04037511059 22.158346228979 131.646735653875 19.907227656285 135.6875 17.5859375 C142.976849008503 16.635152846717 146.897054410006 18.16949594831 152.6875 22.5859375 C156.950474652856 27.286140322379 157.826433233652 29.788115889372 157.8125 36.0859375 C157.815078125 37.25125 157.81765625 38.4165625 157.8203125 39.6171875 C157.6875 42.5859375 157.6875 42.5859375 156.6875 44.5859375 C157.6775 44.7509375 157.6775 44.7509375 162.6875 45.5859375 C162.6875 41.2959375 162.6875 37.0059375 162.6875 32.5859375 C166.6875 34.5859375 166.6875 34.5859375 168.6875 37.5859375 C168.446792099767 40.594786252908 168.120435163284 43.598684873337 167.6875 46.5859375 C169.113203125 46.69421875 170.53890625 46.8025 172.0078125 46.9140625 C177.709335177194 47.488027824068 183.05600693419 48.786133552235 188.5625 50.3359375 C189.523415527344 50.603256835937 190.484331054688 50.870576171875 191.474365234375 51.14599609375 C200.669680053461 53.764791913941 209.292212735731 56.337512966554 216.6875 62.5859375 C216.6875 64.2359375 216.6875 65.8859375 216.6875 67.5859375 C201.968651616314 79.956033482034 178.72043235878 82.174175759272 160.3125 84.9609375 C159.214782714844 85.128596191406 158.117065429688 85.296254882812 156.986083984375 85.468994140625 C150.153601700967 86.43686391044 143.587385006092 86.734691239767 136.6875 86.5859375 C136.3575 84.6059375 136.0275 82.6259375 135.6875 80.5859375 C125.613284514206 77.492079444718 117.932192702908 75.930974884035 107.6875 78.5859375 C105.772613706553 78.969925252776 103.856014038514 79.345506254569 101.9375 79.7109375 C100.535 79.9996875 99.1325 80.2884375 97.6875 80.5859375 C97.6875 83.5559375 97.6875 86.5259375 97.6875 89.5859375 C91.4175 89.5859375 85.1475 89.5859375 78.6875 89.5859375 C78.3575 84.6359375 78.0275 79.6859375 77.6875 74.5859375 C74.491221003743 72.987798001871 71.290383875939 73.41434218947 67.75 73.3984375 C66.3178515625 73.3842578125 64.885703125 73.370078125 63.41015625 73.35546875 C59.6875 73.5859375 59.6875 73.5859375 56.6875 75.5859375 C56.3575 80.2059375 56.0275 84.8259375 55.6875 89.5859375 C40.076309251383 89.801264268946 24.719249254624 89.596164995508 9.19091796875 87.9453125 C5.04810397571 87.520349280644 0.901553754178 87.148248444839 -3.24609375 86.7734375 C-62.17036735212 81.262726252568 -62.17036735212 81.262726252568 -78.3125 67.5859375 C-78.3125 65.9359375 -78.3125 64.2859375 -78.3125 62.5859375 C-61.018540545112 49.764553766203 -37.317046893203 46.452389279635 -16.3125 44.5859375 C-16.6425 43.5959375 -16.9725 42.6059375 -17.3125 41.5859375 C-17.397116524956 38.937349283361 -17.419722756351 36.286641009156 -17.41015625 33.63671875 C-17.40693359375 32.06728515625 -17.4037109375 30.4978515625 -17.400390625 28.880859375 C-17.396201171875 28.058759765625 -17.396201171875 28.058759765625 -17.375 23.8984375 C-17.36998420561 22.225912770507 -17.365421436898 20.553386616559 -17.361328125 18.880859375 C-17.349517337888 14.782516246948 -17.333046854188 10.684244646951 -17.3125 6.5859375 C-11.36767095634 1.431770719147 -8.113277367892 -0.160130474366 0 0 Z" fill="#5F5048" transform="translate(900.3125,230.4140625)"/>
    <path d="M0 0 C11.531810712497 7.808373397803 19.846786523582 18.458581997725 23.078857421875 32.177734375 C25.743310929382 48.356459748402 23.798239388206 64.484159261283 14.46875 78.12109375 C4.361233800248 91.244884546911 -8.22637828772 97.960944031436 -24.5078125 100.6875 C-39.371819082599 101.855065471745 -54.262417517308 98.741098758347 -66.2265625 89.61328125 C-77.360894037177 80.004889727707 -85.442558237593 68.519780611829 -87.5078125 53.6875 C-88.60844008136 35.891198646012 -85.592974497726 22.972581076657 -74.39453125 9.0625 C-55.594353937983 -11.665090448207 -23.466081974281 -13.926458144974 0 0 Z" fill="#A7473E" transform="translate(188.5078125,336.3125)"/>
    <path d="M0 0 C9.57 0 19.14 0 29 0 C33.499479708637 11.248699271592 33.499479708637 11.248699271592 35.40234375 16.609375 C35.81806640625 17.777265625 36.2337890625 18.94515625 36.662109375 20.1484375 C37.08298828125 21.336953125 37.5038671875 22.52546875 37.9375 23.75 C38.35451171875 24.923046875 38.7715234375 26.09609375 39.201171875 27.3046875 C40.041241355572 29.667788666369 40.878983344103 32.031718579399 41.71435546875 34.396484375 C42.604929757125 36.892662972875 43.511296823389 39.38324207188 44.43017578125 41.869140625 C44.887631835938 43.11373046875 45.345087890625 44.3583203125 45.81640625 45.640625 C46.025596923828 46.202817382812 46.025596923828 46.202817382812 47.084228515625 49.0478515625 C48 52 48 52 48 56 C48.66 56 49.32 56 50 56 C50.092248535156 55.059226074219 50.184497070313 54.118452148437 50.279541015625 53.149169921875 C51.163191046867 48.060172198742 52.77384801707 43.459447606149 54.52734375 38.61328125 C54.876322174072 37.63385055542 55.225300598144 36.65441986084 55.584854125977 35.645309448242 C56.320631024506 33.584285589688 57.059579367565 31.524391481228 57.801513671875 29.465576171875 C58.936656151903 26.314842208935 60.061916514391 23.160714905739 61.185546875 20.005859375 C61.90307169073 17.999794549266 62.621151621283 15.99392817066 63.33984375 13.98828125 C63.676364593506 13.046565704346 64.012885437012 12.104850158691 64.359603881836 11.13459777832 C65.743247681451 7.301567032904 67.175255718908 3.649488562183 69 0 C78.57 0 88.14 0 98 0 C99.965173801155 10.89623744502 101.772218557163 21.78620474468 103.3125 32.75 C103.518347167969 34.205593261719 103.724194335937 35.661186523437 103.936279296875 37.160888671875 C105.627508864507 49.19669062645 107.278592905859 61.238141217326 108.903411865234 73.283081054688 C109.17486234596 75.293252357982 109.447495222154 77.303264366877 109.721343994141 79.313110351562 C110.106045369079 82.14180558572 110.485407708664 84.971166841415 110.86328125 87.80078125 C111.082824707031 89.431848144531 111.302368164062 91.062915039062 111.528564453125 92.743408203125 C112 97 112 97 112 103 C102.43 103 92.86 103 83 103 C81.095174029435 99.190348058871 81.255325715498 94.582947490614 80.84375 90.375 C80.790153198242 89.846081542969 80.790153198242 89.846081542969 80.518920898438 87.16943359375 C80.059032014548 82.629809649246 79.608342610624 78.089282463569 79.15673828125 73.548828125 C78.826385490671 70.240560580896 78.49143676273 66.932780679924 78.15625 63.625 C78.10571472168 63.108327636719 78.10571472168 63.108327636719 77.849975585938 60.49365234375 C77.112801810865 53.22560362173 77.112801810865 53.22560362173 76 51 C75.490256347656 52.539704589844 74.980512695313 54.079409179688 74.455322265625 55.665771484375 C72.570479874235 61.356390247106 70.681719636976 67.045702041848 68.791748046875 72.734619140625 C67.972962342125 75.201058621052 67.155251974618 77.667855344985 66.338623046875 80.135009765625 C65.167351496946 83.672974344277 63.992269238223 87.209652933486 62.81640625 90.74609375 C62.633059768677 91.30129447937 62.633059768677 91.30129447937 61.705215454102 94.110946655273 C61.535076828003 94.621438064575 61.535076828003 94.621438064575 60.674072265625 97.204833984375 C60.374289703369 98.108622894287 60.074507141113 99.012411804199 59.765640258789 99.943588256836 C59 102 59 102 58 103 C51.73 103 45.46 103 39 103 C28.561240884934 74.318749227537 28.561240884934 74.318749227537 24.9375 61.22265625 C24.112710459265 58.387442203723 23.153976057833 55.714934743205 22 53 C19.71618044209 55.28381955791 20.17823079432 60.601900385113 19.84375 63.80078125 C19.736556396484 64.788701629639 19.629362792969 65.776622009277 19.518920898438 66.794479370117 C19.175135204697 69.966722124138 18.837125183237 73.139542994466 18.5 76.3125 C18.162335675897 79.474680764912 17.823386025707 82.636703914803 17.481079101562 85.798385620117 C17.267865549817 87.769118639155 17.057406705166 89.740152034805 16.849975585938 91.711502075195 C16.433933269864 95.56848530076 15.942376652143 99.230493391428 15 103 C5.43 103 -4.14 103 -14 103 C-12.625568587529 88.764817513688 -11.246997387398 74.598364556517 -8.62890625 60.52734375 C-6.664729347293 49.484304719226 -5.280206488335 38.375577278106 -3.875 27.25 C-3.478905599483 24.134314691182 -3.081632471646 21.01878866573 -2.682403564453 17.903503417969 C-2.436647443857 15.983877480588 -2.192791952675 14.064006941005 -1.951141357422 12.143859863281 C-1.429406375889 8.051389520868 -0.809775223598 4.048876117991 0 0 Z" fill="#A7483F" transform="translate(495,331)"/>
    <path d="M0 0 C11.22 0 22.44 0 34 0 C39.607218338482 13.457324012356 39.607218338482 13.457324012356 41.8828125 19.9453125 C42.401499023438 21.411379394531 42.920185546875 22.877446289063 43.45458984375 24.387939453125 C43.725997924805 25.158043518066 43.997406005859 25.928147583008 44.277038574219 26.721588134766 C51.17747035585 46.27976509303 58.512084762351 65.664026609599 65.95361328125 85.02197265625 C66.355700073242 86.071294708252 66.757786865234 87.120616760254 67.172058105469 88.201736450195 C67.931991579055 90.184392082951 68.694764730843 92.165962280263 69.460754394531 94.146286010742 C72 100.77529845155 72 100.77529845155 72 103 C61.44 103 50.88 103 40 103 C38.02 97.39 36.04 91.78 34 86 C22.78 85.67 11.56 85.34 0 85 C-0.66 87.97 -1.32 90.94 -2 94 C-2.99 96.97 -3.98 99.94 -5 103 C-15.23 103 -25.46 103 -36 103 C-35.173040936682 98.038245620094 -34.114526826611 94.229582855847 -32.3671875 89.578125 C-31.81546875 88.097878417969 -31.26375 86.617631835938 -30.6953125 85.092529296875 C-30.547231445312 84.698695526123 -30.547231445312 84.698695526123 -29.7978515625 82.705657958984 C-28.204520346448 78.46589000389 -26.630038176119 74.219131239941 -25.0546875 69.97265625 C-24.724586791992 69.083792266846 -24.394486083984 68.194928283691 -24.054382324219 67.27912902832 C-20.286350018288 57.111722991989 -16.637851607082 46.902061858035 -13 36.6875 C-12.691571655273 35.822337646484 -12.383143310547 34.957175292969 -12.065368652344 34.065795898438 C-8.020740645541 22.718570001088 -4.004850260318 11.361320631785 0 0 Z" fill="#449496" transform="translate(648,331)"/>
    <path d="M0 0 C11.22 0 22.44 0 34 0 C37.937500000008 10.50000000002 37.937500000008 10.50000000002 39.266845703125 14.0478515625 C41.289634356291 19.445931751737 43.316691374505 24.842311448121 45.35546875 30.234375 C49.056529776858 40.035450314595 52.694571984435 49.84574915229 56.110107421875 59.75048828125 C59.631896829659 69.918707799506 63.368583490079 80.010330642181 67.089111328125 90.107177734375 C67.341888427734 90.797188720703 67.341888427734 90.797188720703 68.62109375 94.2890625 C69.079274902344 95.533813476562 69.537456054687 96.778564453125 70.009521484375 98.06103515625 C71 101 71 101 71 103 C60.44 103 49.88 103 39 103 C34 87.25 34 87.25 34 85 C22.78 85 11.56 85 0 85 C-0.99 88.96 -1.98 92.92 -3 97 C-3.66 98.98 -4.32 100.96 -5 103 C-15.23 103 -25.46 103 -36 103 C-35.070863184912 98.354315924559 -33.76478756892 94.30610093622 -32.15625 89.859375 C-32.013730545044 89.463814086914 -32.013730545044 89.463814086914 -31.292495727539 87.462036132812 C-30.364986395301 84.890143748975 -29.432542930017 82.320071037539 -28.5 79.75 C-27.858314004492 77.973751478371 -27.216958288754 76.197383606527 -26.575927734375 74.4208984375 C-25.3034685566 70.895863034113 -24.029223633793 67.371481801666 -22.75341796875 63.84765625 C-20.877607124606 58.664883762063 -19.014706193958 53.477519239268 -17.1533203125 48.28955078125 C-13.730112198461 38.750844196696 -10.255649867744 29.233529192104 -6.703125 19.7421875 C-4.354084955556 13.20151177992 -2.197690333183 6.593070999548 0 0 Z" fill="#CFA750" transform="translate(406,331)"/>
    <path d="M0 0 C7.358090633186 0.750288311434 11.438694571117 6.676522712821 16 12 C38.942549672435 42.020724303237 51.840333474168 80.470671067433 46.8125 118.25 C43.409188547619 141.499796171975 33.258124743367 161.359765103152 21.35546875 181.296875 C17.824907966855 187.229560961937 14.635788430858 193.287989017595 11.55078125 199.46484375 C10 202 10 202 7 203 C4.810694718623 199.497111549797 4.004728122063 197.293143567896 3.9375 193.125 C5.475606643724 187.153527147895 8.63331249284 183.36668750716 13 179 C9.596872615606 180.058750741812 6.986467686613 181.009021542258 4 183 C5.267098600527 178.92603266984 6.781897891213 175.252653158496 8.78515625 171.48828125 C9.31560546875 170.48345703125 9.8460546875 169.4786328125 10.392578125 168.443359375 C10.94365234375 167.41017578125 11.4947265625 166.3769921875 12.0625 165.3125 C13.159523572774 163.247139707937 14.254665174591 161.180778375591 15.34765625 159.11328125 C15.832424316406 158.203605957031 16.317192382812 157.293930664062 16.816650390625 156.356689453125 C18 154 18 154 19 151 C18.698359375 151.337734375 18.698359375 151.337734375 17.171875 153.046875 C16.772265625 153.492890625 16.772265625 153.492890625 14.75 155.75 C13.96109375 156.63171875 13.1721875 157.5134375 12.359375 158.421875 C10.294073277452 160.678661650466 8.182649356095 162.857399255943 6 165 C7.493036436799 160.901767331645 9.504718522964 157.358433153676 11.75 153.625 C16.608094301062 145.236159567565 20.642854589929 136.428581640285 23 127 C22.39671875 127.89203125 21.7934375 128.7840625 21.171875 129.703125 C20.37265625 130.87359375 19.5734375 132.0440625 18.75 133.25 C18.355546875 133.830078125 18.355546875 133.830078125 16.359375 136.765625 C14.387643079649 139.468595248428 12.445140492141 141.734319360493 10 144 C11.63454998367 139.567031981459 13.808714223461 135.522620285682 16.0625 131.375 C19.890795631825 124.327613104524 19.890795631825 124.327613104524 21 121 C17.125 125.75 17.125 125.75 16 128 C15.34 127.67 14.68 127.34 14 127 C14.30744140625 126.36642578125 14.30744140625 126.36642578125 15.86328125 123.16015625 C16.679968009517 121.461072302039 17.496358446763 119.761845900772 18.3125 118.0625 C18.71662109375 117.23169921875 19.1207421875 116.4008984375 19.537109375 115.544921875 C26 102.041158536585 26 102.041158536585 26 96 C25.445703125 97.10859375 24.89140625 98.2171875 24.3203125 99.359375 C21.546875 104.90625 18.7734375 110.453125 16 116 C15.34 115.67 14.68 115.34 14 115 C14.3493359375 114.1028125 14.698671875 113.205625 15.05859375 112.28125 C18.533269402817 102.752960957713 19.853670720785 94.123325589323 20 84 C18.68 87.63 17.36 91.26 16 95 C15.67 93.68 15.34 92.36 15 91 C14.67 90.01 14.34 89.02 14 88 C12.994436592765 83.977746371061 13.129762339838 82.427822347455 13.9375 78.5 C15.079055571662 72.278905206781 15.201299800002 66.307393733384 15 60 C14.34 61.98 13.68 63.96 13 66 C12.67 66 12.34 66 12 66 C12.33 61.38 12.66 56.76 13 52 C12.34 53.32 11.68 54.64 11 56 C8.692731109374 52.539096664061 8.075435988373 49.747162934985 7.125 45.69921875 C6.952265625 44.973154296875 6.952265625 44.973154296875 6.078125 41.298828125 C5.900234375 40.537958984375 5.900234375 40.537958984375 5 36.6875 C4.294004153526 33.690854586432 3.585756372928 30.694738612769 2.875 27.69921875 C2.7190234375 27.033216552734 2.7190234375 27.033216552734 1.9296875 23.662841796875 C1.094986602403 20.374234242609 0.07434920798 17.215254118132 -1 14 C-1.273079377263 11.88234671594 -1.482969407231 9.755458891529 -1.625 7.625 C-1.699765625 6.565390625 -1.77453125 5.50578125 -1.8515625 4.4140625 C-1.900546875 3.617421875 -1.94953125 2.82078125 -2 2 C-1.34 1.34 -0.68 0.68 0 0 Z" fill="#5D4F46" transform="translate(1093,71)"/>
    <path d="M0 0 C0.825 0.165 0.825 0.165 5 1 C5.15781547855 13.60269321565 1.382632614585 25.063960561559 -2.1396484375 37.01416015625 C-3.949167785551 43.294075487313 -5.475350618179 49.645715930425 -7 56 C-7.66 55.01 -8.32 54.02 -9 53 C-9 56.96 -9 60.92 -9 65 C-11 62 -11 62 -12 58 C-12.192415172199 65.215568957468 -11.708639931115 71.851005940641 -10.4375 78.95703125 C-9.997726133524 82.015815553439 -9.926205040537 84.914448257458 -10 88 C-10.33 87.835 -10.33 87.835 -12 87 C-12 89.31 -12 91.62 -12 94 C-14.672335995844 90.436885338875 -15.77263970703 88.154142530054 -17 84 C-17.612973090274 94.216218171234 -14.551650591291 104.185959264267 -12 114 C-15.233878922028 111.047327940757 -17.222452490909 108.120772517356 -19.25 104.25 C-19.77078125 103.26515625 -20.2915625 102.2803125 -20.828125 101.265625 C-21.21484375 100.51796875 -21.6015625 99.7703125 -22 99 C-19.338565338179 107.688801395946 -15.95666104925 115.822900498217 -12 124 C-12.33 124.66 -12.66 125.32 -13 126 C-14.65 124.68 -16.3 123.36 -18 122 C-17.3619140625 123.03640625 -16.723828125 124.0728125 -16.06640625 125.140625 C-15.2401171875 126.49671875 -14.413828125 127.8528125 -13.5625 129.25 C-12.7387890625 130.59578125 -11.915078125 131.9415625 -11.06640625 133.328125 C-9 137 -9 137 -8 141 C-13.176584336493 136.308720445053 -16.993528939998 130.676662469631 -21 125 C-16.129038087485 137.841626860267 -10.858764634368 150.665915005101 -3 162 C-3.33 162.66 -3.66 163.32 -4 164 C-4.770859375 163.156953125 -5.54171875 162.31390625 -6.3359375 161.4453125 C-7.338828125 160.349609375 -8.34171875 159.25390625 -9.375 158.125 C-9.8738671875 157.5797265625 -9.8738671875 157.5797265625 -12.3984375 154.8203125 C-13.904575217219 153.187532572324 -15.429264325952 151.570735674048 -17 150 C-11.531671517718 160.455646588809 -5.933348373844 170.798520915815 0 181 C-0.33 181.66 -0.66 182.32 -1 183 C-1.721875 182.38125 -2.44375 181.7625 -3.1875 181.125 C-5.802441569126 179.149266369994 -7.964201314283 178.132684551646 -11 177 C-10.3619140625 177.770859375 -9.723828125 178.54171875 -9.06640625 179.3359375 C-8.2401171875 180.338828125 -7.413828125 181.34171875 -6.5625 182.375 C-5.7387890625 183.372734375 -4.915078125 184.37046875 -4.06640625 185.3984375 C-0.634059912221 189.719690167223 -0.586399782523 192.457757085802 -1 198 C-3 201 -3 201 -5 203 C-5.66 203 -6.32 203 -7 203 C-7.415078125 202.146640625 -7.83015625 201.29328125 -8.2578125 200.4140625 C-12.642810413874 191.515635771009 -17.262444194854 182.777130803557 -22 174.0625 C-30.077348981089 159.129082659615 -37.654284821999 144.520755271834 -42 128 C-42.2462109375 127.0680078125 -42.492421875 126.136015625 -42.74609375 125.17578125 C-45.836498738377 110.576281822152 -45.098272825274 93.517064495781 -42 79 C-41.8053515625 77.9262109375 -41.610703125 76.852421875 -41.41015625 75.74609375 C-36.089768314312 48.073780167337 -22.589543352308 17.883388487244 0 0 Z" fill="#5D4F46" transform="translate(843,71)"/>
    <path d="M0 0 C9.57 0 19.14 0 29 0 C29 25.41 29 50.82 29 77 C41.21 77 53.42 77 66 77 C66 85.58 66 94.16 66 103 C44.22 103 22.44 103 0 103 C0 69.01 0 35.02 0 0 Z" fill="#419395" transform="translate(226,331)"/>
    <path d="M0 0 C3.901598188263 2.45981787534 7.725662154241 5.028764073976 11.47021484375 7.7216796875 C16.497056704279 11.279484972815 21.070642223722 13.300875736047 27 15 C25 17 25 17 21 18 C22.65 18.33 24.3 18.66 26 19 C25 21 25 21 22.0625 22 C11.911238473543 24.498772068051 5.758855046963 21.97965363076 -3 17 C-2.835 17.33 -2.835 17.33 -2 19 C-1.270264836873 30.310895028461 -3.822012458045 40.135279093095 -11 49 C-13.375 51.5625 -13.375 51.5625 -15 53 C-13.414167517855 52.234321339728 -11.83143505885 51.462220353974 -10.25 50.6875 C-9.36828125 50.2582421875 -8.4865625 49.828984375 -7.578125 49.38671875 C-5 48 -5 48 -1 45 C-1.309876169467 47.250362861762 -1.622998178153 49.500278938612 -1.9375 51.75 C-2.1115234375 53.00296875 -2.285546875 54.2559375 -2.46484375 55.546875 C-3 59 -3 59 -4 63 C-10.721712889319 65.987427950808 -18.120343134505 66.128539387841 -25.12890625 64.08984375 C-37.24017006297 59.279367318539 -49.26591352778 51.339655823539 -56.25 40.125 C-58.979822509944 36.030266235084 -60.454086678739 34.623540471879 -65 33 C-65 30 -65 30 -63.27734375 28.2734375 C-62.5258203125 27.523203125 -61.774296875 26.77296875 -61 26 C-59.469091338056 23.573550850658 -57.994213689922 21.111268834146 -56.5625 18.625 C-50.507614910199 8.115825531094 -44.010799762974 1.747151597452 -33.375 -3.9375 C-21.662462610074 -6.781973366125 -10.584737907416 -5.754119265105 0 0 Z" fill="#242127" transform="translate(1123,371)"/>
    <path d="M0 0 C10.391216748614 5.924404119119 15.75944942499 13.474961206891 22.10546875 23.51171875 C24.329178561078 26.751152455209 26.715010785253 29.254584344254 29.5 32 C29.5 32.66 29.5 33.32 29.5 34 C28.7871484375 34.4241015625 28.074296875 34.848203125 27.33984375 35.28515625 C22.062472135466 38.516924869937 17.699380962888 41.649940124947 13.421875 46.171875 C2.867874637247 56.211046076765 -9.006224322358 60.499360360383 -23.37109375 60.3359375 C-28.463231931285 59.789216047328 -30.860836479443 58.639163520557 -34.5 55 C-35.1875 50.8125 -35.1875 50.8125 -35.5 47 C-34.7407421875 47.5053125 -33.981484375 48.010625 -33.19921875 48.53125 C-32.2053515625 49.1809375 -31.211484375 49.830625 -30.1875 50.5 C-29.2013671875 51.1496875 -28.215234375 51.799375 -27.19921875 52.46875 C-24.5 54 -24.5 54 -21.5 54 C-22.386875 53.360625 -23.27375 52.72125 -24.1875 52.0625 C-30.283773490967 46.426322621559 -34.247562981594 38.715523503818 -34.6953125 30.3515625 C-34.672109375 29.121796875 -34.64890625 27.89203125 -34.625 26.625 C-34.606953125 25.379765625 -34.58890625 24.13453125 -34.5703125 22.8515625 C-34.547109375 21.910546875 -34.52390625 20.96953125 -34.5 20 C-35.20125 20.4125 -35.20125 20.4125 -38.75 22.5 C-44.686973518529 25.468486759264 -49.960577848431 25.901989262285 -56.5 25 C-60.25 23.5 -60.25 23.5 -62.5 22 C-61.18 21.34 -59.86 20.68 -58.5 20 C-59.325 19.67 -59.325 19.67 -63.5 18 C-61.433769091534 16.966884545767 -59.365417408819 15.936958680973 -57.2734375 14.95703125 C-52.775880166976 12.81080275069 -48.702124348255 10.52271240687 -44.6875 7.5625 C-31.45996861928 -2.032709271411 -15.522189852362 -7.383528145989 0 0 Z" fill="#232126" transform="translate(852.5,369)"/>
    <path d="M0 0 C0.804375 0.515625 1.60875 1.03125 2.4375 1.5625 C8.078436773794 3.838667470128 12.934645904436 2.640971960692 18.625 0.875 C22.718352991176 -0.186239664379 24.932698108131 -0.213054950206 29 1 C36.569033484038 6.286309099963 40.418636395672 13.123102493182 45 21 C48.115731408804 26.065812714079 50.986280552001 30.608366255765 56 34 C61.123420001649 34 62.778718515292 33.209635090776 66.5625 29.625 C69.780921203965 25.618101440943 72.097893105097 21.294545238213 74.46484375 16.75 C78.196252469759 10.065746211933 83.016843662081 3.49157816896 90 0 C95.757477612296 -0.460598208984 99.657340707144 0.996502765179 105 3 C109.110267260394 3.27401781736 111.99061144516 3.00234713871 116 2 C114.691651969789 7.233392120845 112.516415883302 10.317540825615 107.97265625 13.35546875 C101.780083179365 16.704197947931 95.355187774619 18.357661352414 88.515625 19.91015625 C82.176748164343 21.875208069054 77.989552613459 25.734449907029 73.375 30.375 C72.454609375 31.290234375 71.53421875 32.20546875 70.5859375 33.1484375 C63.554883042328 40.90171507417 61.734646736152 47.595040318636 61.8046875 57.99609375 C61.80610244751 58.412866287231 61.80610244751 58.412866287231 61.813262939453 60.521987915039 C61.824377109565 63.160643597238 61.849464853329 65.798948476496 61.875 68.4375 C61.885041148633 70.236323191493 61.894165007509 72.035151751577 61.90234375 73.833984375 C61.924287541496 78.222768490341 61.958756270783 82.611349951865 62 87 C71.506052036559 95.095813547619 80.717098529872 95.888385955387 93 95 C109.054294230547 92.116105040966 117.808282074849 82.796313189916 127 70 C128.322553120929 68.324766046823 129.652114947023 66.654920372561 131 65 C131.66 65 132.32 65 133 65 C132.664571016669 70.398310200481 129.321005528944 73.842690290774 126 77.8125 C125.703475341797 78.1695703125 125.703475341797 78.1695703125 124.202880859375 79.9765625 C110.34983112894 96.416140973324 92.647845175589 105.669974533374 71.25 108.72265625 C47.691056209884 110.733094962858 23.741917159561 107.246653485442 5.0703125 91.75390625 C4.387109375 91.1751171875 3.70390625 90.596328125 3 90 C1.72125 89.01 0.4425 88.02 -0.875 87 C-6.893153769384 81.688431086131 -11.699625268017 74.735145719943 -16 68 C-16 67.01 -16 66.02 -16 65 C-10.775281514669 67.612359242665 -7.500230321024 71.340500794549 -4.625 76.4375 C1.282369749503 85.752967681909 10.886566279141 91.805800943416 21.484375 94.671875 C31.61902106391 95.993785356162 41.751118021138 95.704297898197 51 91 C55.381353577073 86.773971337371 55.069220077974 84.24861371099 55.17578125 78.34765625 C55.213011109322 75.557566805466 55.245173652663 72.767476901155 55.274658203125 69.977294921875 C55.299678700833 68.050070908081 55.333706306153 66.122940601743 55.377197265625 64.196044921875 C55.438402376748 61.413012516089 55.466334217263 58.631242930926 55.48828125 55.84765625 C55.514087677002 54.997282867432 55.539894104004 54.146909484863 55.566482543945 53.270767211914 C55.571344489609 42.711852923514 49.011645359957 34.415193294343 42 27 C35.134904991006 21.287088768739 27.642129801103 18.587641774153 19 16.625 C11.740518744012 14.839881658364 6.165732240311 12.217748458639 2 5.8125 C0 2 0 2 0 0 Z" fill="#1F1D22" transform="translate(911,453)"/>
    <path d="M0 0 C0.854326171875 0.008489685059 1.70865234375 0.016979370117 2.5888671875 0.025726318359 C5.289751771972 0.059035826163 7.987534216462 0.134264065533 10.6875 0.2109375 C12.529904475061 0.241066498801 14.372356244921 0.268437139334 16.21484375 0.29296875 C29.590408362013 0.488845862013 29.590408362013 0.488845862013 32.6875 3.5859375 C32.6875 15.4659375 32.6875 27.3459375 32.6875 39.5859375 C37.6375 39.5859375 42.5875 39.5859375 47.6875 39.5859375 C47.6875 39.9159375 47.6875 40.2459375 47.6875 40.5859375 C46.6253125 40.6001171875 45.563125 40.614296875 44.46875 40.62890625 C43.0559375 40.6766015625 41.643125 40.724296875 40.1875 40.7734375 C39.49140625 40.79083984375 39.49140625 40.79083984375 35.96875 40.87890625 C31.6875 41.5859375 31.6875 41.5859375 28.25 44.11328125 C21.854329776584 48.497333958455 13.595799621124 47.137761112356 6.1875 46.9609375 C4.6212890625 46.9467578125 3.055078125 46.932578125 1.44140625 46.91796875 C-5.564343913393 46.828685612828 -12.365778158088 46.547088577455 -19.3125 45.5859375 C-18.8175 45.4209375 -18.8175 45.4209375 -16.3125 44.5859375 C-16.4775 44.0909375 -16.4775 44.0909375 -17.3125 41.5859375 C-17.397116524956 38.937349283361 -17.419722756351 36.286641009156 -17.41015625 33.63671875 C-17.40693359375 32.06728515625 -17.4037109375 30.4978515625 -17.400390625 28.880859375 C-17.39201171875 27.23666015625 -17.3836328125 25.5924609375 -17.375 23.8984375 C-17.36998420561 22.225912770507 -17.365421436898 20.553386616559 -17.361328125 18.880859375 C-17.349517337888 14.782516246948 -17.333046854188 10.684244646951 -17.3125 6.5859375 C-11.36767095634 1.431770719147 -8.113277367892 -0.160130474366 0 0 Z" fill="#7E3F84" transform="translate(900.3125,230.4140625)"/>
    <path d="M0 0 C1.32 0 2.64 0 4 0 C4 1.98 4 3.96 4 6 C4.99 6 5.98 6 7 6 C7 4.02 7 2.04 7 0 C7.99 0 8.98 0 10 0 C10 2.31 10 4.62 10 7 C11.32 7 12.64 7 14 7 C14 4.69 14 2.38 14 0 C14.99 0 15.98 0 17 0 C17 1.98 17 3.96 17 6 C17.99 6 18.98 6 20 6 C20 4.02 20 2.04 20 0 C20.99 0 21.98 0 23 0 C23 1.98 23 3.96 23 6 C24.32 6 25.64 6 27 6 C27 4.02 27 2.04 27 0 C27.99 0 28.98 0 30 0 C30 2.31 30 4.62 30 7 C31.65 7 33.3 7 35 7 C35.165 7.825 35.165 7.825 36 12 C38.31 12 40.62 12 43 12 C43 12.99 43 13.98 43 15 C40.69 15 38.38 15 36 15 C36 16.32 36 17.64 36 19 C38.31 19 40.62 19 43 19 C43 19.99 43 20.98 43 22 C40.69 22 38.38 22 36 22 C36 22.99 36 23.98 36 25 C38.31 25 40.62 25 43 25 C43 25.99 43 26.98 43 28 C41.02 28 39.04 28 37 28 C37 28.99 37 29.98 37 31 C38.98 31 40.96 31 43 31 C43 32.32 43 33.64 43 35 C40.69 35 38.38 35 36 35 C36 35.99 36 36.98 36 38 C38.31 38 40.62 38 43 38 C43 38.99 43 39.98 43 41 C40.69 41 38.38 41 36 41 C36 42.65 36 44.3 36 46 C35.67 46.33 35.34 46.66 35 47 C33.35 47 31.7 47 30 47 C30 49.31 30 51.62 30 54 C29.01 54 28.02 54 27 54 C27 51.69 27 49.38 27 47 C25.68 47 24.36 47 23 47 C23 49.31 23 51.62 23 54 C22.01 54 21.02 54 20 54 C20 51.69 20 49.38 20 47 C19.01 47 18.02 47 17 47 C17 49.31 17 51.62 17 54 C15.68 54 14.36 54 13 54 C13 52.02 13 50.04 13 48 C12.01 48 11.02 48 10 48 C10 49.98 10 51.96 10 54 C9.01 54 8.02 54 7 54 C7 52.02 7 50.04 7 48 C6.01 48 5.02 48 4 48 C4 49.98 4 51.96 4 54 C2.68 54 1.36 54 0 54 C0 51.69 0 49.38 0 47 C-1.65 47 -3.3 47 -5 47 C-5.33 46.67 -5.66 46.34 -6 46 C-6 44.35 -6 42.7 -6 41 C-7.98 41 -9.96 41 -12 41 C-12 40.01 -12 39.02 -12 38 C-10.02 38 -8.04 38 -6 38 C-6 37.01 -6 36.02 -6 35 C-7.98 35 -9.96 35 -12 35 C-12 34.01 -12 33.02 -12 32 C-10.02 32 -8.04 32 -6 32 C-6 30.68 -6 29.36 -6 28 C-7.98 28 -9.96 28 -12 28 C-12 27.01 -12 26.02 -12 25 C-10.02 25 -8.04 25 -6 25 C-6 24.01 -6 23.02 -6 22 C-7.98 22 -9.96 22 -12 22 C-12 21.01 -12 20.02 -12 19 C-10.02 19 -8.04 19 -6 19 C-6 18.01 -6 17.02 -6 16 C-8.31 16 -10.62 16 -13 16 C-13 14.68 -13 13.36 -13 12 C-10.69 12 -8.38 12 -6 12 C-5.67 10.35 -5.34 8.7 -5 7 C-3.35 6.67 -1.7 6.34 0 6 C0 4.02 0 2.04 0 0 Z" fill="#2A4A67" transform="translate(969,190)"/>
    <path d="M0 0 C5.824101993705 4.05607103133 9.803313495993 8.888404204553 12.5 15.4375 C13.636065005198 24.843061438384 13.905978422125 33.723511896724 8.14453125 41.58984375 C6.074124222597 43.915978011192 4.148828640297 45.781982099814 1.5 47.4375 C0.654375 48.015 -0.19125 48.5925 -1.0625 49.1875 C-7.619155177282 51.571738246284 -14.138438120939 51.053559620625 -20.8125 49.3125 C-28.295173578001 45.50775072305 -32.260289294362 41.162963990368 -35.5 33.4375 C-37.624958321445 24.937666714218 -37.433510410472 17.335139790181 -33.0546875 9.62890625 C-25.018445935547 -1.69855987477 -12.717942373437 -4.415952212999 0 0 Z" fill="#E1D9CC" transform="translate(168.5,357.5625)"/>
    <path d="M0 0 C4.468404107573 0.496489345286 5.689877564821 0.689877564821 9 4 C8.67 6.31 8.34 8.62 8 11 C7.01 11.66 6.02 12.32 5 13 C5 17.62 5 22.24 5 27 C6.65 27.33 8.3 27.66 10 28 C15.911361805827 22.854925835669 17.584663012623 19.902298179522 19 12 C22.850310502119 9.433126331921 24.585697631305 10.167112760624 29 11 C31 14 31 14 31 19 C29.68 20.32 28.36 21.64 27 23 C24.69 23 22.38 23 20 23 C17.36 25.64 14.72 28.28 12 31 C12.165 31.825 12.165 31.825 13 36 C17.95 36 22.9 36 28 36 C28.66 34.68 29.32 33.36 30 32 C32.31 32 34.62 32 37 32 C37.99 32.99 38.98 33.98 40 35 C40 36.98 40 38.96 40 41 C38.68 42.32 37.36 43.64 36 45 C34.35 45 32.7 45 31 45 C30.01 44.01 29.02 43.02 28 42 C28 41.34 28 40.68 28 40 C23.05 40.33 18.1 40.66 13 41 C12.67 42.65 12.34 44.3 12 46 C19.015384615385 52.892307692308 19.015384615385 52.892307692308 24 53.4375 C24.99 53.293125 25.98 53.14875 27 53 C29 54.625 29 54.625 31 57 C31.25 60.25 31.25 60.25 31 63 C30.01 63.99 29.02 64.98 28 66 C25.69 66 23.38 66 21 66 C17.838695411558 61.78492721541 17.663230303689 60.939288879234 18 56 C16.68 54.845 16.68 54.845 10 49 C10 48.34 10 47.68 10 47 C9.01 47.165 9.01 47.165 4 48 C4 52.95 4 57.9 4 63 C5.32 63.66 6.64 64.32 8 65 C8.165 66.155 8.165 66.155 9 72 C7.35 73.32 5.7 74.64 4 76 C-0.080723424772 75.448550888544 -0.913307961788 75.086692038212 -4 72 C-3.67 69.69 -3.34 67.38 -3 65 C-1.68 64.34 -0.36 63.68 1 63 C1 58.05 1 53.1 1 48 C-0.98 48 -2.96 48 -5 48 C-6.98 50.31 -8.96 52.62 -11 55 C-11.66 55 -12.32 55 -13 55 C-13 57.64 -13 60.28 -13 63 C-13.99 63.99 -14.98 64.98 -16 66 C-18.31 66 -20.62 66 -23 66 C-26 62 -26 62 -26 57 C-24 54.6875 -24 54.6875 -22 53 C-19.69 53 -17.38 53 -15 53 C-12.36 50.36 -9.72 47.72 -7 45 C-7 43.35 -7 41.7 -7 40 C-12.28 40 -17.56 40 -23 40 C-23.66 41.32 -24.32 42.64 -25 44 C-27.31 44 -29.62 44 -32 44 C-35 41 -35 41 -35.25 38.25 C-35 35 -35 35 -33 32.625 C-31 31 -31 31 -26 31 C-25.01 31.99 -24.02 32.98 -23 34 C-23 34.66 -23 35.32 -23 36 C-18.05 35.67 -13.1 35.34 -8 35 C-7.67 33.68 -7.34 32.36 -7 31 C-9.64 28.36 -12.28 25.72 -15 23 C-17.31 23 -19.62 23 -22 23 C-23.32 21.68 -24.64 20.36 -26 19 C-26 14 -26 14 -24 11.6875 C-23.67 11.4090625 -23.67 11.4090625 -22 10 C-19.69 10.33 -17.38 10.66 -15 11 C-12.70986346663 14.435204800055 -12.821570266637 15.98533099933 -13 20 C-10.36 22.64 -7.72 25.28 -5 28 C-3.35 27.67 -1.7 27.34 0 27 C0.33 22.38 0.66 17.76 1 13 C-0.32 12.34 -1.64 11.68 -3 11 C-3.33 8.69 -3.66 6.38 -4 4 C-2.68 2.68 -1.36 1.36 0 0 Z" fill="#1DB9AE" transform="translate(912,136)"/>
    <path d="M0 0 C11.082257670796 7.27273159646 18.514673679795 17.686348597202 24 29.625 C27.041569773757 26.583430226243 28.486087331852 24.048518200359 30.4375 20.25 C32.630773397678 15.981212850156 34.883783344142 12.282274053249 38 8.625 C38.66 8.625 39.32 8.625 40 8.625 C40 7.965 40 7.305 40 6.625 C41.600913101766 5.474625294603 43.20585224634 4.329851836293 44.8125 3.1875 C45.7058203125 2.5494140625 46.599140625 1.911328125 47.51953125 1.25390625 C52.400426341693 -1.951342967694 57.339947198774 -2.12967370683 63 -1.375 C70.340389536259 0.868291192899 77.523167038956 3.453268131475 84 7.625 C83.67 8.945 83.34 10.265 83 11.625 C82.835 11.295 82.835 11.295 82 9.625 C80.68 10.285 79.36 10.945 78 11.625 C72.249687523752 12.177914661178 68.334665432611 10.625499537229 63 8.625 C58.899726758091 8.130139436321 56.726169684455 8.277043692865 53 10.0625 C46.805882679412 15.353308544669 42.930781641534 21.634178585046 39.0625 28.75 C35.742597009462 34.753112256864 32.467803242668 38.524147567999 27 42.625 C22.075953458334 42.625 20.285350245981 41.889213190723 16.625 38.5 C12.542854271146 33.427131262795 9.42163341442 27.741708966879 6.13671875 22.13671875 C2.84791885236 16.731543049857 -0.849685130578 10.913489253738 -7 8.625 C-11.475910508923 8.816824736097 -15.347383281737 9.422463777091 -19.625 10.75 C-23.566878582318 11.771968521342 -26.071259161029 11.662780598973 -30 10.625 C-32.4375 8.5625 -32.4375 8.5625 -34 6.625 C-31.618979243617 5.672591697447 -29.237189601354 4.722060687858 -26.8515625 3.78125 C-25.039616191958 3.046543003862 -23.24035492992 2.279069321933 -21.4609375 1.46875 C-13.96953261205 -1.860763283533 -7.99177565962 -2.747172882995 0 0 Z" fill="#917D68" transform="translate(945,445.375)"/>
    <path d="M0 0 C5.791695374535 2.937816494329 10.067994346193 6.135988692386 13 12 C13.096850876815 14.164901952333 13.129794384883 16.332938032859 13.125 18.5 C13.1262890625 19.08265625 13.1262890625 19.08265625 13.1328125 22.03125 C13 25 13 25 12 27 C13.98 27.33 15.96 27.66 18 28 C18 23.71 18 19.42 18 15 C22 17 22 17 24 20 C23.820420270651 26.195500662529 23.081357490071 30.274217643076 19 35 C11.990552069286 40.533774682143 6.791304511447 41.929366476924 -2 41 C-5.91075924995 39.010315469324 -7.576890975041 37.634663537439 -10 34 C-10 32.35 -10 30.7 -10 29 C-10.66 28.34 -11.32 27.68 -12 27 C-12.439901694721 33.268599149769 -11.693262627138 36.870468573419 -8 42 C-1.663416624885 45.168291687557 5.183177424398 44.435120542232 12 43 C11.06181299556 46.471291916427 10.33978547745 47.770842352417 7.3125 49.8125 C3.438529985166 51.201281703431 1.090109139707 51.564152984787 -3 51 C-9.876768892771 47.40765804109 -13.56999241828 43.86001516344 -17 37 C-17.23046875 34.0546875 -17.23046875 34.0546875 -17.1875 30.875 C-17.18427734375 30.3477734375 -17.18427734375 30.3477734375 -17.16796875 27.6796875 C-17 25 -17 25 -16 23 C-17.65 23 -19.3 23 -21 23 C-21 27.62 -21 32.24 -21 37 C-25 36 -25 36 -26.5 33.875 C-28.303728607653 30.417853501999 -28.604672706405 28.854788503332 -28 25 C-24.462946504961 17.925893009922 -19.666043386022 12.555347795341 -12 10 C-3.168224299066 9.426508071368 -3.168224299066 9.426508071368 1.4375 11.6875 C5.489628846612 15.34429920304 7.229972125688 18.609804879815 8 24 C8.385803556021 17.634241325654 8.289813373894 13.885620786935 4 9 C-0.527141031115 6.736429484442 -3.004655223935 6.692594167627 -8 7 C-10.8125 8 -10.8125 8 -13 9 C-13.99 9 -14.98 9 -16 9 C-13.440647620989 0.623937668691 -8.36969465729 -1.004363358875 0 0 Z" fill="#E48A3C" transform="translate(1045,248)"/>
    <path d="M0 0 C0 7.052370640467 -8.61577239272 13.795717819989 -13.25 18.625 C-26.894161664116 31.930410064179 -41.165113216963 37.31881878653 -60.05078125 37.15234375 C-80.850132963453 36.349994870846 -94.021810298841 28.570833343136 -108.3828125 13.85546875 C-111.263866260391 10.712110095006 -113.714253066749 7.591888037966 -116 4 C-115.67 3.01 -115.34 2.02 -115 1 C-114.05125 1.86625 -113.1025 2.7325 -112.125 3.625 C-94.230811062305 18.83506059704 -71.761793852379 22.065769611817 -49 21 C-30.006664424395 18.651733056107 -14.540692652548 12.427403264868 0 0 Z" fill="#998773" transform="translate(1028,540)"/>
    <path d="M0 0 C3.875633352306 3.482676491535 5.82110045651 6.837152967317 6.625 12.0625 C5.719873568691 17.764796517244 3.93241608765 21.485942034419 -0.65234375 25.078125 C-4.415642067326 27.238618316365 -7.701740344831 28.095509854378 -11.9375 29 C-17.68804499926 30.23029807052 -21.963044035949 31.97404397654 -27 35 C-27.66 35 -28.32 35 -29 35 C-28.690625 34.2575 -28.38125 33.515 -28.0625 32.75 C-27 30 -27 30 -26 26 C-26.94875 25.236875 -27.8975 24.47375 -28.875 23.6875 C-31.869354088451 21.112355483933 -33.723402924331 19.515164511851 -34.44140625 15.58203125 C-34.674236986073 10.256966995944 -34.442049453997 6.726115388849 -31 2.5 C-22.310590690842 -6.014923178452 -10.10340024945 -6.085973754322 0 0 Z" fill="#2AAEA9" transform="translate(1064,201)"/>
    <path d="M0 0 C3 3 3 3 4.5625 6.375 C9.291330075966 13.407619087335 16.56772546337 14.980497990963 24.5 16.9375 C38.089200601526 20.386118883771 46.223572619629 27.562792934448 53.4375 39.4375 C56.629399310222 44.995057654582 57.135028822423 48.744949460697 57.09765625 55.1640625 C57.09624130249 56.071270446777 57.09482635498 56.978478393555 57.093368530273 57.913177490234 C57.087760955324 60.817151554946 57.07520718255 63.721049150091 57.0625 66.625 C57.057485975126 68.591144721631 57.052922899348 70.557290649008 57.048828125 72.5234375 C57.015748347129 86.983737011751 57.015748347129 86.983737011751 54.66162109375 89.414794921875 C48.647873962943 95.255885397762 40.491454097095 96.256769240753 32.375 96.4375 C17.265742661519 95.960041307347 7.158788179912 89.744089824586 -3.1640625 78.9765625 C-3.769921875 78.324296875 -4.37578125 77.67203125 -5 77 C-4.835 76.67 -4.835 76.67 -4 75 C-2.88625 75.928125 -1.7725 76.85625 -0.625 77.8125 C8.941115593813 84.849833732492 19.506488823391 84.93674221128 31 84 C39.359600390026 82.439188534774 45.645430158636 79.635184576304 52 74 C55.852160465234 68.221759302148 55.338209927984 60.75826505218 55 54 C51.106808341673 41.065476798158 41.557053263829 32.847416599593 30.1796875 26.40234375 C24.775229986484 23.58481989962 19.424166289129 21.436546369224 13.625 19.5625 C7.450601021914 17.454335045051 4.541441581637 15.46393844024 1 10 C-0.15775060172 6.526748194841 -0.068666519332 3.639325524608 0 0 Z" fill="#978671" transform="translate(910,453)"/>
    <path d="M0 0 C0 6.6 0 13.2 0 20 C2.97 20 5.94 20 9 20 C9 20.33 9 20.66 9 21 C1.618752442784 21.083809785727 -5.591620264797 20.819889154309 -12.9375 20.125 C-13.918073730469 20.035490722656 -14.898647460937 19.945981445312 -15.908935546875 19.853759765625 C-18.939836822671 19.574722862772 -21.96991172741 19.287716243289 -25 19 C-25.490327148437 18.954641113281 -25.490327148437 18.954641113281 -27.9716796875 18.72509765625 C-44.635231270695 17.182384364652 -44.635231270695 17.182384364652 -47 16 C-47 11.05 -47 6.1 -47 1 C-42.211115345834 -0.877993982026 -37.377261184405 -2.614783211748 -32.5 -4.25 C-31.4584375 -4.60578125 -30.416875 -4.9615625 -29.34375 -5.328125 C-19.647854500033 -7.276365684573 -9.190736353662 -2.6355788073 0 0 Z" fill="#219087" transform="translate(931,299)"/>
    <path d="M0 0 C0.66 0.33 1.32 0.66 2 1 C0.9674609375 2.1446875 -0.065078125 3.289375 -1.12890625 4.46875 C-27.325998345414 34.453452845946 -37.739153080895 72.852397125455 -36 112 C-33.581578428725 137.271396052129 -20.043442319593 160.46368822268 -7.46630859375 181.9599609375 C-4.069308716123 187.827982311063 -1.378044122002 193.647060872139 1 200 C-0.32 200.99 -1.64 201.98 -3 203 C-3.330966796875 202.388178710937 -3.66193359375 201.776357421875 -4.0029296875 201.14599609375 C-5.005993370933 199.292088645808 -6.009359375029 197.438344754531 -7.012939453125 195.584716796875 C-8.184410411237 193.420088731337 -9.354796790873 191.254873399153 -10.524169921875 189.089111328125 C-13.401804093739 183.76604916565 -16.294385518842 178.453820526305 -19.25390625 173.17578125 C-28.023023608295 157.48818991281 -35.939418344203 141.631472979119 -40 124 C-40.224296875 123.0293359375 -40.44859375 122.058671875 -40.6796875 121.05859375 C-47.189368005683 86.860477668777 -37.156982362905 50.990423512519 -19 22 C-13.386336928917 14.156403574594 -6.817448579191 6.817448579191 0 0 Z" fill="#BCAC92" transform="translate(836,75)"/>
    <path d="M0 0 C5.890287174285 0 6.918087350969 1.008796520947 11 5 C13.570982084228 10.141964168457 13.811743449539 14.334194710794 13 20 C10.302027211106 24.271790249082 8.528888133786 25.735555933107 4 28 C7.634352921403 27.752203209904 9.497015970701 27.474242084768 12.1875 24.9375 C14.348270080479 21.435562283362 15.68155790583 17.8894041778 17 14 C17.99 14.33 18.98 14.66 20 15 C20.838337804827 20.449195731373 18.912030090411 23.709325769566 15.84375 28.0078125 C12.218167007267 31.925285648928 7.93492799801 32.772361411999 2.8125 33.375 C-0.427214555011 32.943038059332 -2.349129256413 31.871202877826 -5 30 C-1.888230434515 33.212149228888 -0.271077119228 33.972095002432 4.25 34.4375 C9.378340503888 33.965152848326 13.212301184921 32.823885262887 18 31 C15.719538042002 35.560923915995 14.510836502146 36.744581748927 10 39 C2.279768497612 39.890795942583 -1.720937511685 38.957154596038 -8 34 C-11.287997400559 30.095503086837 -11.288845298467 27.006651840086 -11 22 C-11 21.67 -11 21.34 -11 21 C-13.403413984924 25.806827969849 -13.11605865624 27.818299096029 -12 33 C-9.517218083094 36.812843658106 -6.257058041508 39.833415792979 -3 43 C-4.98 43 -6.96 43 -9 43 C-10.148429228894 41.710640813513 -11.293662272389 40.418434211102 -12.4375 39.125 C-13.0755859375 38.405703125 -13.713671875 37.68640625 -14.37109375 36.9453125 C-17.399364140173 33.328816926124 -17.332428936965 30.222964759532 -17.28515625 25.54296875 C-16.870455345248 21.844745613102 -15.426370652173 19.763366576086 -13 17 C-9.375420826997 14.281565620248 -8.191152854325 13.582104563101 -4 13 C-7.756265590124 12.642260419988 -9.739293066051 12.864432394346 -13.125 14.625 C-17.616108963836 18.335046535343 -20.075571325065 22.547452087685 -22 28 C-22.66 28 -23.32 28 -24 28 C-24.423022214842 23.177546750801 -24.297486377444 20.540884322625 -21.9375 16.25 C-17.918386441156 11.803321168938 -14.519339951542 9.314917493943 -8.5 8.5625 C-4.564616323887 9.054422959514 -1.548857609481 10.261784028009 2 12 C-1.941176470588 8.058823529412 -1.941176470588 8.058823529412 -5.390625 7.8671875 C-10.367111063321 7.880784456457 -15.110338671139 7.942775928895 -20 9 C-18 5 -18 5 -14 3 C-8.041343919623 2.201590511092 -3.336699755532 2.321367816422 2.0625 5.0625 C5.214933892717 8.214933892717 6.598811890753 10.79643567226 8 15 C7.745635858448 10.675809593619 7.483408045111 8.54538343551 4.5625 5.25 C3.716875 4.5075 2.87125 3.765 2 3 C1.34 2.01 0.68 1.02 0 0 Z" fill="#8C539D" transform="translate(1032,135)"/>
    <path d="M0 0 C12.87 0 25.74 0 39 0 C39 6.93 39 13.86 39 21 C26.46 21 13.92 21 1 21 C0.67 20.67 0.34 20.34 0 20 C0 13.4 0 6.8 0 0 Z" fill="#DC953A" transform="translate(960,260)"/>
    <path d="M0 0 C0.66 0 1.32 0 2 0 C2.0515625 1.2181640625 2.103125 2.436328125 2.15625 3.69140625 C3.198865978477 18.465748581377 3.198865978477 18.465748581377 7.4375 22.375 C18.063207179005 29.497514101774 31.459354942224 31.609112778669 43.94140625 29.50390625 C50.10077301317 27.987622637926 54.80901631313 25.623894271966 60 22 C60.66 22.33 61.32 22.66 62 23 C54.117977581206 32.959804832917 44.826729082979 40.138601320412 32 42 C22.008242312223 42.686794874326 12.811411390195 42.206743094206 4 37 C2.68 35.68 1.36 34.36 0 33 C0 22.11 0 11.22 0 0 Z" fill="#8D7C68" transform="translate(972,507)"/>
    <path d="M0 0 C8.91 0 17.82 0 27 0 C27 7.92 27 15.84 27 24 C26.34 24.66 25.68 25.32 25 26 C17.08 26 9.16 26 1 26 C0.67 25.67 0.34 25.34 0 25 C0 16.75 0 8.5 0 0 Z" fill="#2B7898" transform="translate(971,204)"/>
    <path d="M0 0 C8.25 0 16.5 0 25 0 C26 1 26 1 26.113525390625 3.316650390625 C26.108288574219 4.316882324219 26.103051757813 5.317114257813 26.09765625 6.34765625 C26.09443359375 7.42724609375 26.0912109375 8.5068359375 26.087890625 9.619140625 C26.07951171875 10.75544921875 26.0711328125 11.8917578125 26.0625 13.0625 C26.05798828125 14.20267578125 26.0534765625 15.3428515625 26.048828125 16.517578125 C26.013392857143 24.986607142857 26.013392857143 24.986607142857 25 26 C16.75 26 8.5 26 0 26 C-2.424823463801 23.575176536199 -1.049380097824 16.378086707135 -1.0625 13.0625 C-1.07087890625 11.92619140625 -1.0792578125 10.7898828125 -1.087890625 9.619140625 C-1.09111328125 8.53955078125 -1.0943359375 7.4599609375 -1.09765625 6.34765625 C-1.102893066406 5.347424316406 -1.108129882812 4.347192382812 -1.113525390625 3.316650390625 C-1 1 -1 1 0 0 Z" fill="#E18E37" transform="translate(968,150)"/>
    <path d="M0 0 C4 2 4 2 6 5 C5.820420270651 11.195500662529 5.081357490071 15.274217643076 1 20 C-6.009447930714 25.533774682143 -11.208695488553 26.929366476924 -20 26 C-23.91075924995 24.010315469324 -25.576890975041 22.634663537439 -28 19 C-28 17.35 -28 15.7 -28 14 C-28.66 13.34 -29.32 12.68 -30 12 C-30.439901694721 18.268599149769 -29.693262627138 21.870468573419 -26 27 C-19.663416624885 30.168291687557 -12.816822575602 29.435120542232 -6 28 C-6.93818700444 31.471291916427 -7.66021452255 32.770842352417 -10.6875 34.8125 C-14.561470014834 36.201281703431 -16.909890860293 36.564152984787 -21 36 C-27.876768892771 32.40765804109 -31.56999241828 28.86001516344 -35 22 C-35.716625322916 17.11454467358 -36.171209174062 12.119673045082 -33.7265625 7.6953125 C-31.731518287138 5.349919059513 -29.774057015162 3.387028507581 -27 2 C-24.667013398719 1.959776093081 -22.332933344759 1.956797530653 -20 2 C-19.34 2.66 -18.68 3.32 -18 4 C-19.299375 4.61875 -20.59875 5.2375 -21.9375 5.875 C-26 8 -26 8 -27 10 C-26.64228515625 9.90267578125 -26.64228515625 9.90267578125 -24.83203125 9.41015625 C-20.14068000337 8.730719172902 -16.451614454784 10.516128515072 -12 12 C-12.33 12.99 -12.66 13.98 -13 15 C-19.75 15.125 -19.75 15.125 -22 14 C-21.67 14.99 -21.34 15.98 -21 17 C-17.766550204197 18.616724897902 -14.555419006931 18.109397507906 -11 18 C-10.01 17.67 -9.02 17.34 -8 17 C-7.67 15.35 -7.34 13.7 -7 12 C-4.69 12.33 -2.38 12.66 0 13 C0 8.71 0 4.42 0 0 Z" fill="#DF802F" transform="translate(1063,263)"/>
    <path d="M0 0 C1.684047943762 0.370233441071 3.37161754169 0.724851084768 5.0625 1.0625 C9 2 9 2 10 3 C10.040929374234 5.332974331357 10.042417231891 7.667052246002 10 10 C5.187839653278 10.338358539573 0.375225172781 10.669780563017 -4.4375 11 C-5.115224609375 11.0476953125 -5.115224609375 11.0476953125 -8.544921875 11.2890625 C-15.380865801832 11.754771575307 -22.148170716452 12.121405612998 -29 12 C-29 9.03 -29 6.06 -29 3 C-9.255235541584 -3.041005963663 -9.255235541584 -3.041005963663 0 0 Z" fill="#E9A144" transform="translate(1027,308)"/>
    <path d="M0 0 C1.4141015625 0.0038671875 2.828203125 0.007734375 4.28515625 0.01171875 C7.9375 0.3125 7.9375 0.3125 10.9375 2.3125 C10.9375 7.2625 10.9375 12.2125 10.9375 17.3125 C7.3075 17.3125 3.6775 17.3125 -0.0625 17.3125 C-0.0625 15.9925 -0.0625 14.6725 -0.0625 13.3125 C-0.7225 13.3125 -1.3825 13.3125 -2.0625 13.3125 C-2.0625 14.6325 -2.0625 15.9525 -2.0625 17.3125 C-5.3625 17.3125 -8.6625 17.3125 -12.0625 17.3125 C-12.0625 12.6925 -12.0625 8.0725 -12.0625 3.3125 C-7.383787658175 -0.196534256369 -5.704796594291 -0.067728178745 0 0 Z" fill="#E59C4D" transform="translate(968.0625,302.6875)"/>
    <path d="M0 0 C1.505625 0.4550390625 3.01125 0.910078125 4.5625 1.37890625 C5.1296875 1.55357421875 5.1296875 1.55357421875 8 2.4375 C5.920540051139 6.596419897721 -0.238595939295 7.920296631308 -4.4189453125 9.523681640625 C-15.26183826062 13.010809557891 -24.067082568614 8.975127943053 -34 4.4375 C-34.33 3.7775 -34.66 3.1175 -35 2.4375 C-32.172943409327 1.39547593613 -29.340555161115 0.378989324187 -26.5 -0.625 C-25.708515625 -0.91955078125 -24.91703125 -1.2141015625 -24.1015625 -1.517578125 C-15.262814961788 -4.596650013312 -8.706331862628 -2.652710489395 0 0 Z" fill="#34BFBA" transform="translate(922,296.5625)"/>
    <path d="M0 0 C0.66 0.33 1.32 0.66 2 1 C-5.71180190177 9.646224613955 -13.114521405102 17.779231538413 -23 24 C-23.745078125 24.50015625 -24.49015625 25.0003125 -25.2578125 25.515625 C-31.800131427833 29.595780890476 -39.28252933404 31.875661221655 -46.98828125 30.4453125 C-49.361114547191 29.740510530537 -51.687946477522 28.884020464477 -54 28 C-54.66 25.03 -55.32 22.06 -56 19 C-55.13375 19.495 -54.2675 19.99 -53.375 20.5 C-43.488685513766 23.889593538137 -33.961623603902 22.475338472319 -24.38671875 18.6796875 C-15.157826145784 14.10249739641 -7.506674039596 6.956942859929 0 0 Z" fill="#95836D" transform="translate(875,406)"/>
    <path d="M0 0 C0.66 0 1.32 0 2 0 C3.339571053762 4.769104526176 4.670591834393 9.540553459603 6 14.3125 C6.3815625 15.67052734375 6.763125 17.0285546875 7.15625 18.427734375 C7.33671875 19.077099609375 7.33671875 19.077099609375 8.25 22.36328125 C8.58515625 23.562512207031 8.9203125 24.761743164063 9.265625 25.997314453125 C10 29 10 29 10 32 C4.06 32 -1.88 32 -8 32 C-7.330156456993 27.31109519895 -6.64605571796 23.321613701205 -5.37109375 18.84765625 C-5.05849609375 17.74228515625 -4.7458984375 16.6369140625 -4.423828125 15.498046875 C-4.09833984375 14.36431640625 -3.7728515625 13.2305859375 -3.4375 12.0625 C-3.272822265625 11.482099609375 -3.272822265625 11.482099609375 -2.439453125 8.544921875 C-1.630340403078 5.695437941275 -0.817080126608 2.847207531169 0 0 Z" fill="#E0D6C4" transform="translate(422,361)"/>
    <path d="M0 0 C2.729937737948 4.094906606921 3.706337409119 8.555669905369 5 13.25 C5.260390625 14.1794140625 5.52078125 15.108828125 5.7890625 16.06640625 C6.279790593836 17.818652524455 6.768334496469 19.571513146145 7.25390625 21.3251953125 C8.154601350846 24.554257984251 9.079044900905 27.776657153166 10 31 C3.73 31 -2.54 31 -9 31 C-7.694833927648 23.994978230034 -6.021881154684 17.248507033431 -3.9375 10.4375 C-3.66873046875 9.53708984375 -3.3999609375 8.6366796875 -3.123046875 7.708984375 C-1.132829410173 1.132829410173 -1.132829410173 1.132829410173 0 0 Z" fill="#DAD6CA" transform="translate(665,362)"/>
    <path d="M0 0 C0.99 0.86625 1.98 1.7325 3 2.625 C13.556957506772 11.601574646477 24.079638564245 19.078798066638 38.375 19.25 C39.0182421875 19.262890625 39.0182421875 19.262890625 42.2734375 19.328125 C47.177746843016 18.896299020112 50.515064075022 17.484935924978 54 14 C53.34 17.63 52.68 21.26 52 25 C45.278287110681 27.987427950808 37.879656865495 28.128539387841 30.87109375 26.08984375 C18.748060808253 21.274692734823 7.855639066356 13.474185421809 0 3 C0 2.01 0 1.02 0 0 Z" fill="#7D6959" transform="translate(1067,409)"/>
    <path d="M0 0 C0.66 0.66 1.32 1.32 2 2 C0.68 2.66 0.68 2.66 -6 6 C-6.33 7.98 -6.66 9.96 -7 12 C-7.99 11.34 -8.98 10.68 -10 10 C-10.439901694721 16.268599149769 -9.693262627138 19.870468573419 -6 25 C0.336583375115 28.168291687557 7.183177424398 27.435120542232 14 26 C13.06181299556 29.471291916427 12.33978547745 30.770842352417 9.3125 32.8125 C5.438529985166 34.201281703431 3.090109139707 34.564152984787 -1 34 C-7.876768892771 30.40765804109 -11.56999241828 26.86001516344 -15 20 C-15.716625322916 15.11454467358 -16.171209174062 10.119673045082 -13.7265625 5.6953125 C-9.212771446816 0.388855700891 -6.72931845086 -0.124617008349 0 0 Z" fill="#DB7D2E" transform="translate(1043,265)"/>
    <path d="M0 0 C3.855447977134 1.996571273873 5.598050917143 3.397076375715 8 7 C7.67 8.32 7.34 9.64 7 11 C6.21625 10.360625 5.4325 9.72125 4.625 9.0625 C0.008114053817 5.434946756571 -3.097154030984 5.54593492546 -9 6 C-13.293272165444 8.055933149649 -16.15240251192 9.481387833856 -18.5 13.6875 C-19.178481811661 18.182442002253 -19.122857972434 22.454255019948 -19 27 C-23 26 -23 26 -24.5 23.875 C-26.303728607653 20.417853501999 -26.604672706405 18.854788503332 -26 15 C-20.555885352749 4.111770705498 -12.332241377947 -1.419262615813 0 0 Z" fill="#E58833" transform="translate(1043,258)"/>
    <path d="M0 0 C5.890287174285 0 6.918087350969 1.008796520947 11 5 C13.570982084228 10.141964168457 13.811743449539 14.334194710794 13 20 C10.302027211106 24.271790249082 8.528888133786 25.735555933107 4 28 C4.66 28.66 5.32 29.32 6 30 C4.02 30 2.04 30 0 30 C-2.333333333333 27.666666666667 -4.666666666667 25.333333333333 -7 23 C-6.125 18.125 -6.125 18.125 -5 17 C-3.02 17 -1.04 17 1 17 C3 19 3 19 4 23 C6.565459404224 20.434540595776 6.540460870769 18.523133324104 7 15 C7.33 15 7.66 15 8 15 C7.745635858448 10.675809593619 7.483408045111 8.54538343551 4.5625 5.25 C3.716875 4.5075 2.87125 3.765 2 3 C1.34 2.01 0.68 1.02 0 0 Z" fill="#925CA1" transform="translate(1032,135)"/>
    <path d="M0 0 C2.971938503799 1.124517271708 5.334406871314 2.222937914209 8 4 C6.805740439591 15.046900933787 5.408901145665 24.964827794142 -3 33 C-5.980837371511 34.734878893472 -8.713877504693 35.826384823104 -12 37 C-12.99 36.67 -13.98 36.34 -15 36 C-14.13375 35.525625 -13.2675 35.05125 -12.375 34.5625 C-4.512965495673 28.593177505974 -1.419316321605 20.583417898019 0 11 C0.203162518478 7.288897995798 0.146883974305 3.72106068239 0 0 Z" fill="#E6E1D5" transform="translate(1120,388)"/>
    <path d="M0 0 C1.65 0 3.3 0 5 0 C7.925049326321 6.253553732135 10.127871488364 12.353943783694 12 19 C10.35 19 8.7 19 7 19 C6.67 18.01 6.34 17.02 6 16 C3.69 15.67 1.38 15.34 -1 15 C-1.33 16.32 -1.66 17.64 -2 19 C-3.32 19 -4.64 19 -6 19 C-4.693289273734 12.248661247626 -2.677678048979 6.337171382583 0 0 Z" fill="#EAE3D7" transform="translate(898,246)"/>
    <path d="M0 0 C1.32 0.99 2.64 1.98 4 3 C4 4.98 4 6.96 4 9 C2.68 10.32 1.36 11.64 0 13 C-2.64 13 -5.28 13 -8 13 C-9.32 11.68 -10.64 10.36 -12 9 C-12 7.35 -12 5.7 -12 4 C-8.028266519643 0.148622079654 -5.507273745813 -0.700925749467 0 0 Z" fill="#E9E5D7" transform="translate(1087,384)"/>
    <path d="M0 0 C1.32 0.99 2.64 1.98 4 3 C4 4.98 4 6.96 4 9 C2.68 10.32 1.36 11.64 0 13 C-2.64 13 -5.28 13 -8 13 C-9.32 11.68 -10.64 10.36 -12 9 C-12 7.35 -12 5.7 -12 4 C-8.028266519643 0.148622079654 -5.507273745813 -0.700925749467 0 0 Z" fill="#E9E5D4" transform="translate(834,384)"/>
    <path d="M0 0 C1.27875 0.928125 2.5575 1.85625 3.875 2.8125 C14.198174431166 9.640933633096 25.887133970609 10.275292409759 38 10 C37.67 10.99 37.34 11.98 37 13 C25.982288793221 15.593623165438 13.833553065884 14.810735902568 4 9 C1.625 6.8125 1.625 6.8125 0 5 C0 3.35 0 1.7 0 0 Z" fill="#B4A58C" transform="translate(972,535)"/>
    <path d="M0 0 C9.625 1.875 9.625 1.875 13 3 C12.67 3.99 12.34 4.98 12 6 C5.25 6.125 5.25 6.125 3 5 C3.33 5.99 3.66 6.98 4 8 C7.233449795803 9.616724897902 10.444580993069 9.109397507906 14 9 C14.99 8.67 15.98 8.34 17 8 C17.33 6.35 17.66 4.7 18 3 C18.99 3.165 18.99 3.165 24 4 C21.975060396051 8.049879207897 20.603985262215 9.45083969258 17 12 C13.021273075307 13.326242308231 10.189067856391 13.431227573452 6 13 C2 10 2 10 -1 7 C-1.042543562981 5.000452539886 -1.040807829325 2.999583636927 -1 1 C-0.67 0.67 -0.34 0.34 0 0 Z" fill="#5D534B" transform="translate(1038,272)"/>
    <path d="M0 0 C2.710116581366 1.500243107542 4.820551236071 2.820551236071 7 5 C7 6.98 7 8.96 7 11 C4.69 10.835 4.69 10.835 -7 10 C-4.911001783695 5.822003567389 -3.944553881842 5.076080990443 0 3 C-4.609522490095 2.539047750991 -6.393406271342 2.504821445993 -10.0625 5.5 C-11.031875 6.325 -12.00125 7.15 -13 8 C-16.375 8.3125 -16.375 8.3125 -19 8 C-13.914823983949 0.763403361773 -8.757214942291 -0.851395897167 0 0 Z" fill="#EDE2D1" transform="translate(1043,263)"/>
    <path d="M0 0 C0.99 0 1.98 0 3 0 C3.33 0.99 3.66 1.98 4 3 C6.97 3 9.94 3 13 3 C13.33 2.01 13.66 1.02 14 0 C14.33 0 14.66 0 15 0 C15 2.64 15 5.28 15 8 C14.34 8 13.68 8 13 8 C13 6.68 13 5.36 13 4 C12.34 4 11.68 4 11 4 C11.33 5.32 11.66 6.64 12 8 C8.37 8 4.74 8 1 8 C0.67 7.01 0.34 6.02 0 5 C-0.99 5.33 -1.98 5.66 -3 6 C-3 6.66 -3 7.32 -3 8 C-3.66 8 -4.32 8 -5 8 C-5 5.69 -5 3.38 -5 1 C-3.68 1.33 -2.36 1.66 -1 2 C-0.67 1.34 -0.34 0.68 0 0 Z" fill="#655245" transform="translate(970,266)"/>
    <path d="M0 0 C0.99 0.33 1.98 0.66 3 1 C3 3.31 3 5.62 3 8 C-3.27 8 -9.54 8 -16 8 C-16 7.01 -16 6.02 -16 5 C-14.9287890625 4.7228515625 -13.857578125 4.445703125 -12.75390625 4.16015625 C-11.3707421875 3.7979296875 -9.987578125 3.435703125 -8.5625 3.0625 C-7.1819140625 2.7028515625 -5.801328125 2.343203125 -4.37890625 1.97265625 C-1 1 -1 1 0 0 Z" fill="#DC6B2F" transform="translate(1034,310)"/>
    <path d="M0 0 C0 4.29 0 8.58 0 13 C-3.63 13 -7.26 13 -11 13 C-10.67 11.35 -10.34 9.7 -10 8 C-9.34 8 -8.68 8 -8 8 C-7.34 6.68 -6.68 5.36 -6 4 C-1.444444444444 0 -1.444444444444 0 0 0 Z" fill="#E48830" transform="translate(979,307)"/>
    <path d="M0 0 C1.65 0 3.3 0 5 0 C5 6.27 5 12.54 5 19 C3.35 19 1.7 19 0 19 C0 12.73 0 6.46 0 0 Z" fill="#E7DFD5" transform="translate(912,246)"/>
    <path d="M0 0 C3.438588398601 2.919556187491 6.809223294735 5.809223294735 10 9 C10 10.32 10 11.64 10 13 C6.7 13 3.4 13 0 13 C0 8.71 0 4.42 0 0 Z" fill="#E49238" transform="translate(956,307)"/>
    <path d="M0 0 C0.33 0 0.66 0 1 0 C1.263059522281 8.242531698127 0.606145509439 15.911910113184 -1 24 C-1.99 24 -2.98 24 -4 24 C-4.99 26.31 -5.98 28.62 -7 31 C-8.237560873864 27.287317378408 -7.565012736005 26.305341789583 -6.125 22.75 C-4.469453843575 18.438799599481 -3.584258301492 14.590600940292 -3 10 C-2.086716188865 6.634747695924 -1.048240318449 3.327023619423 0 0 Z" fill="#AA9D8B" transform="translate(1113,151)"/>
    <path d="M0 0 C1.98 0 3.96 0 6 0 C8 2 8 2 8 7 C7.34 7.66 6.68 8.32 6 9 C4.02 9 2.04 9 0 9 C-2 6 -2 6 -1.5625 3.5625 C-1 1 -1 1 0 0 Z" fill="#DED5CE" transform="translate(1027,152)"/>
    <path d="M0 0 C0.99 0.165 0.99 0.165 6 1 C3.975060396051 5.049879207897 2.603985262215 6.45083969258 -1 9 C-4.755357878772 10.251785959591 -8.064145373424 10.064522206993 -12 10 C-12 9.01 -12 8.02 -12 7 C-10.741875 6.855625 -9.48375 6.71125 -8.1875 6.5625 C-4 6 -4 6 -1 5 C-0.67 3.35 -0.34 1.7 0 0 Z" fill="#564D43" transform="translate(1056,275)"/>
    <path d="M0 0 C0.66 0.33 1.32 0.66 2 1 C0.5975 1.763125 -0.805 2.52625 -2.25 3.3125 C-7.972682015353 6.711870940744 -12.563540017863 11.000674529124 -17.3359375 15.609375 C-20 18 -20 18 -24 20 C-18.811987737191 9.623975474383 -10.128461285612 4.787999880471 0 0 Z" fill="#B8AB95" transform="translate(1074,339)"/>
    <path d="M0 0 C7.486457391615 1.026263051926 12.36203033425 6.30246780095 17.4375 11.5625 C19.822226200685 14.761522952139 21.062445567076 17.156026825011 22 21 C19.506721243517 18.515594121654 17.023444409606 16.024122865189 14.5703125 13.5 C9.970355655515 8.797168721293 5.514424500966 4.596363804978 0 1 C0 0.67 0 0.34 0 0 Z" fill="#C8BDA9" transform="translate(869,342)"/>
    <path d="M0 0 C3 1 3 1 5 5 C5 6.32 5 7.64 5 9 C3.35 8.67 1.7 8.34 0 8 C-0.33 8.66 -0.66 9.32 -1 10 C-1.66 10 -2.32 10 -3 10 C-2.39009109299 6.442198042443 -1.421631901754 3.317141104093 0 0 Z" fill="#524943" transform="translate(977,158)"/>
    <path d="M0 0 C1.32 0.33 2.64 0.66 4 1 C4.99 0.67 5.98 0.34 7 0 C7 2.31 7 4.62 7 7 C6.34 6.01 5.68 5.02 5 4 C4.01 4.33 3.02 4.66 2 5 C2 5.66 2 6.32 2 7 C1.34 7 0.68 7 0 7 C0 4.69 0 2.38 0 0 Z" fill="#494244" transform="translate(965,267)"/>
    <path d="M0 0 C0.33 0.66 0.66 1.32 1 2 C-0.245179646962 3.130332980494 -1.496366521715 4.254050357008 -2.75 5.375 C-3.44609375 6.001484375 -4.1421875 6.62796875 -4.859375 7.2734375 C-7 9 -7 9 -11 11 C-8.479504200571 6.099035945555 -4.969110059274 2.484555029637 0 0 Z" fill="#CBC0AF" transform="translate(1053,329)"/>
    <path d="M0 0 C1.181109769282 4.72443907713 0.308539596675 7.381624952911 -1 12 C-1.66 12 -2.32 12 -3 12 C-2.25 3.375 -2.25 3.375 0 0 Z" fill="#CDC3AE" transform="translate(867,674)"/>
    <path d="M0 0 C0.33 0 0.66 0 1 0 C1 2.64 1 5.28 1 8 C0.34 8 -0.32 8 -1 8 C-1 6.68 -1 5.36 -1 4 C-1.66 4 -2.32 4 -3 4 C-2.67 5.32 -2.34 6.64 -2 8 C-2.99 7.67 -3.98 7.34 -5 7 C-4.67 5.68 -4.34 4.36 -4 3 C-3.01 3 -2.02 3 -1 3 C-0.67 2.01 -0.34 1.02 0 0 Z" fill="#4B4549" transform="translate(984,266)"/>
    <path d="M0 0 C0.66 0 1.32 0 2 0 C1.67 1.65 1.34 3.3 1 5 C-3.75 7.875 -3.75 7.875 -6 9 C-4.256184534618 5.512369069236 -2.47193290887 2.966319490644 0 0 Z" fill="#363230" transform="translate(1042,518)"/>
    <path d="M0 0 C0.33 0.66 0.66 1.32 1 2 C-0.093125 2.309375 -1.18625 2.61875 -2.3125 2.9375 C-4.554079942462 3.583378966472 -6.786935100364 4.262311700121 -9 5 C-8.67 3.68 -8.34 2.36 -8 1 C-5.291206646414 -0.354396676793 -2.990667323211 -0.065014507026 0 0 Z" fill="#CCC1BA" transform="translate(1028,147)"/>
    <path d="M0 0 C0.99 0 1.98 0 3 0 C4.587068421472 4.107706502634 5.101919009807 5.592323960773 4 10 C0 1.125 0 1.125 0 0 Z" fill="#B5A68E" transform="translate(830,174)"/>
    <path d="M0 0 C0 4.282056797933 -2.23467693299 5.889011549614 -5 9 C-5.66 9 -6.32 9 -7 9 C-5.649781737414 4.581103867899 -3.738843315838 2.656546566517 0 0 Z" fill="#CCC2B3" transform="translate(1042,332)"/>
    <path d="M0 0 C0.495 0.33 0.495 0.33 3 2 C3.33 4.31 3.66 6.62 4 9 C3.67 9.165 3.67 9.165 2 10 C1.67 8.35 1.67 8.35 0 0 Z" fill="#D0C5B1" transform="translate(826,167)"/>
    <path d="M0 0 C0.825 0.165 0.825 0.165 5 1 C4.67 1.99 4.34 2.98 4 4 C2.68 3.67 1.36 3.34 0 3 C0 2.01 0 1.02 0 0 Z" fill="#E8E9DE" transform="translate(1047,212)"/>
    <path d="M0 0 C0.99 0.33 1.98 0.66 3 1 C1.02 3.31 -0.96 5.62 -3 8 C-3 4.424241042479 -1.911593933487 2.947040647459 0 0 Z" fill="#776C62" transform="translate(1103,228)"/>
    <path d="M0 0 C1.32 0 2.64 0 4 0 C4 1.32 4 2.64 4 4 C2.68 4 1.36 4 0 4 C0 2.68 0 1.36 0 0 Z" fill="#EFEAE2" transform="translate(1056,212)"/>
    <path d="M0 0 C0.66 0.33 1.32 0.66 2 1 C0.68 2.65 -0.64 4.3 -2 6 C-2.66 6 -3.32 6 -4 6 C-2 2 -2 2 0 0 Z" fill="#A69887" transform="translate(1114,191)"/>
    <path d="M0 0 C0.33 0.66 0.66 1.32 1 2 C1.66 2 2.32 2 3 2 C2.67 3.98 2.34 5.96 2 8 C-0.359530941415 5.640469058585 -0.49141413288 4.221043825096 -1 1 C-0.67 0.67 -0.34 0.34 0 0 Z" fill="#A79887" transform="translate(1110,167)"/>
    <path d="M0 0 C0.33 0 0.66 0 1 0 C1 1.65 1 3.3 1 5 C-0.65 5.33 -2.3 5.66 -4 6 C-4 5.01 -4 4.02 -4 3 C-3.01 2.67 -2.02 2.34 -1 2 C-0.67 1.34 -0.34 0.68 0 0 Z" fill="#CA8A35" transform="translate(992,267)"/>
    <path d="M0 0 C1.32 0 2.64 0 4 0 C4 1.32 4 2.64 4 4 C2.68 3.67 1.36 3.34 0 3 C0 2.01 0 1.02 0 0 Z" fill="#E5E8E3" transform="translate(1039,212)"/>
    <path d="M0 0 C0.33 0.66 0.66 1.32 1 2 C1.66 2.33 2.32 2.66 3 3 C2.01 3.99 1.02 4.98 0 6 C-0.66 6 -1.32 6 -2 6 C-1.125 1.125 -1.125 1.125 0 0 Z" fill="#404148" transform="translate(976,162)"/>
    <path d="M0 0 C2 2 2 2 2 6 C1.01 6 0.02 6 -1 6 C-0.67 4.02 -0.34 2.04 0 0 Z" fill="#8E5390" transform="translate(900,251)"/>
    <path d="M0 0 C1.945100003085 2.917650004628 2.452763165225 4.62537285222 3 8 C1.68 6.68 0.36 5.36 -1 4 C-0.67 2.68 -0.34 1.36 0 0 Z" fill="#706657" transform="translate(828,177)"/>
    <path d="M0 0 C0.66 0.33 1.32 0.66 2 1 C2 1.66 2 2.32 2 3 C0.68 3.33 -0.64 3.66 -2 4 C-1.34 2.68 -0.68 1.36 0 0 Z" fill="#E8D5BA" transform="translate(1038,269)"/>
    <path d="M0 0 C0.99 1.32 1.98 2.64 3 4 C2.67 4.66 2.34 5.32 2 6 C1.01 4.68 0.02 3.36 -1 2 C-0.67 1.34 -0.34 0.68 0 0 Z" fill="#776B5E" transform="translate(832,206)"/>
    <path d="M0 0 C0.99 0.33 1.98 0.66 3 1 C2.67 1.99 2.34 2.98 2 4 C1.34 3.67 0.68 3.34 0 3 C0 2.01 0 1.02 0 0 Z" fill="#373842" transform="translate(977,158)"/>
    <path d="M0 0 C0.99 0 1.98 0 3 0 C2.67 0.99 2.34 1.98 2 3 C1.34 3 0.68 3 0 3 C0 2.01 0 1.02 0 0 Z" fill="#B88033" transform="translate(975,270)"/>
    <path d="M0 0 C0.66 0.33 0.66 0.33 4 2 C3.34 2.66 2.68 3.32 2 4 C1.34 2.68 0.68 1.36 0 0 Z" fill="#B6A996" transform="translate(824,192)"/>
    <path d="M0 0 C0.99 0.99 1.98 1.98 3 3 C2.01 3 1.02 3 0 3 C0 2.01 0 1.02 0 0 Z" fill="#897D6C" transform="translate(912,541)"/>
    <path d="M0 0 C0.66 1.32 1.32 2.64 2 4 C1.01 3.67 0.02 3.34 -1 3 C-0.67 2.01 -0.34 1.02 0 0 Z" fill="#69503F" transform="translate(980,270)"/>
    <path d="M0 0 C0.99 0.33 1.98 0.66 3 1 C2.67 1.66 2.34 2.32 2 3 C1.34 3 0.68 3 0 3 C0 2.01 0 1.02 0 0 Z" fill="#906B3A" transform="translate(988,270)"/>
    <path d="M0 0 C0.66 0.66 1.32 1.32 2 2 C1.01 2 0.02 2 -1 2 C-0.67 1.34 -0.34 0.68 0 0 Z" fill="#8A7B66" transform="translate(871,409)"/>
    <path d="M0 0 C9.57 0 19.14 0 29 0 C29 25.41 29 50.82 29 77 C41.21 77 53.42 77 66 77 C66 85.58 66 94.16 66 103 C44.22 103 22.44 103 0 103 C0 69.01 0 35.02 0 0 Z" fill="#2B4B66" transform="translate(302,331)"/>
  </g>
</svg>
